<svg xmlns="http://www.w3.org/2000/svg" xmlns:xlink="http://www.w3.org/1999/xlink" width="500" zoomAndPan="magnify" viewBox="0 0 375 374.999991" height="500" preserveAspectRatio="xMidYMid meet" version="1.0"><rect x="-37.5" width="450" fill="#ffffff" y="-37.499999" height="449.999989" fill-opacity="1"/><rect x="-37.5" width="450" fill="#ffffff" y="-37.499999" height="449.999989" fill-opacity="1"/><rect x="-37.5" width="450" fill="#ffffff" y="-37.499999" height="449.999989" fill-opacity="1"/><path fill="#000000" d="M 347.953125 0 L 27.046875 0 C 12.109375 0 0 12.109375 0 27.046875 L 0 347.953125 C 0 362.890625 12.109375 375 27.046875 375 L 200.316406 375 L 200.316406 229.980469 L 151.609375 229.980469 L 151.609375 173.21875 L 200.316406 173.21875 L 200.316406 131.445312 C 200.316406 83 229.890625 56.632812 273.105469 56.632812 C 293.800781 56.632812 311.589844 58.175781 316.773438 58.867188 L 316.773438 109.496094 L 286.976562 109.496094 C 263.464844 109.496094 258.910156 120.667969 258.910156 137.066406 L 258.910156 173.21875 L 315.125 173.21875 L 307.800781 229.980469 L 258.910156 229.980469 L 258.910156 375 L 347.953125 375 C 362.890625 375 375 362.890625 375 347.953125 L 375 27.046875 C 375 12.109375 362.890625 0 347.953125 0 Z M 347.953125 0 " fill-opacity="1" fill-rule="nonzero"/></svg>